<mxfile host="app.diagrams.net" modified="2023-08-18T06:21:20.943Z" agent="Mozilla/5.0 (X11; Linux x86_64) AppleWebKit/537.36 (KHTML, like Gecko) Chrome/115.0.0.0 Safari/537.36" version="21.6.8" etag="9QNwujE6PzSJmyxkR4lw" type="github">
  <diagram name="Page-1" id="a4xb-gLP5AdaKO1f3Zdw">
    <mxGraphModel>
      <root>
        <mxCell id="0" />
        <mxCell id="1" parent="0" />
      </root>
    </mxGraphModel>
  </diagram>
</mxfile>
